<svg id="Capa_1" data-name="Capa 1" xmlns="http://www.w3.org/2000/svg" xmlns:xlink="http://www.w3.org/1999/xlink" viewBox="0 0 210.05 25.13"><defs><style>.cls-1{fill:url(#Degradado_sin_nombre);}.cls-2{fill:url(#Degradado_sin_nombre_2);}</style><linearGradient id="Degradado_sin_nombre" x1="-153.42" y1="383.18" x2="-152.42" y2="383.18" gradientTransform="matrix(7.79, 1.79, 3.63, -3.85, -162.42, 1767.31)" gradientUnits="userSpaceOnUse"><stop offset="0" stop-color="#395eca"/><stop offset="1" stop-color="#848bd8"/></linearGradient><linearGradient id="Degradado_sin_nombre_2" x1="-188.82" y1="425.08" x2="-187.82" y2="425.08" gradientTransform="matrix(36.08, 10.62, 16.82, -22.77, -343.5, 11691.61)" xlink:href="#Degradado_sin_nombre"/></defs><g id="_10a5bcc9-19ea-4221-9b57-84312eacbb2d" data-name="10a5bcc9-19ea-4221-9b57-84312eacbb2d"><path d="M50.89,7.74a4.48,4.48,0,0,0-4.46,4.77,4.48,4.48,0,0,0,4.46,4.77,3.79,3.79,0,0,0,3.32-1.62v1.47H55.6V7.89H54.21V9.38A3.83,3.83,0,0,0,50.89,7.74ZM51.08,16a3.27,3.27,0,0,1-3.26-3.52A3.26,3.26,0,0,1,51.08,9a3.22,3.22,0,0,1,3.21,3.51A3.22,3.22,0,0,1,51.08,16Zm11.63,1.25a4.48,4.48,0,0,0,4.46-4.77,4.48,4.48,0,0,0-4.46-4.77,3.77,3.77,0,0,0-3.32,1.63V7.89H58v12.9h1.39V15.64A3.83,3.83,0,0,0,62.71,17.28ZM62.52,9a3.26,3.26,0,0,1,3.26,3.51A3.27,3.27,0,0,1,62.52,16a3.22,3.22,0,0,1-3.21-3.52A3.22,3.22,0,0,1,62.52,9ZM73.78,7.74a3.53,3.53,0,0,0-3.4,2.42V7.89H69v9.24h1.39V13.07c0-2,1.26-3.94,3.33-3.94h.16V7.74ZM79.26,16a3.21,3.21,0,0,1-3.28-3h7.74v-.56a4.58,4.58,0,1,0-9.16,0,4.57,4.57,0,0,0,4.67,4.77,4.23,4.23,0,0,0,4.22-2.81H81.94A2.91,2.91,0,0,1,79.26,16Zm-.12-7a3.08,3.08,0,0,1,3.14,2.77H76A3.09,3.09,0,0,1,79.14,9Zm6.29-1.11v9.24h1.39V11.81A2.74,2.74,0,0,1,89.62,9a2.57,2.57,0,0,1,2.59,2.78v5.35h1.38V11.76a3.7,3.7,0,0,0-3.7-4,3.6,3.6,0,0,0-3.07,1.59V7.89ZM99.8,7.74a4.49,4.49,0,0,0-4.48,4.77,4.49,4.49,0,0,0,4.48,4.77,3.81,3.81,0,0,0,3.32-1.62v1.47h1.39V4.19h-1.39V9.38A3.85,3.85,0,0,0,99.8,7.74ZM100,16a3.28,3.28,0,0,1-3.28-3.52A3.28,3.28,0,0,1,100,9a3.21,3.21,0,0,1,3.19,3.51A3.22,3.22,0,0,1,100,16Zm11,0a3.21,3.21,0,0,1-3.28-3h7.76v-.56a4.59,4.59,0,1,0-9.18,0A4.57,4.57,0,0,0,111,17.28a4.23,4.23,0,0,0,4.23-2.81h-1.52A2.89,2.89,0,0,1,111,16Zm-.12-7a3.08,3.08,0,0,1,3.15,2.77h-6.29A3.09,3.09,0,0,1,110.91,9ZM117,12.34h4.62V11H117Zm6.8,4.79h1.39V7.89h-1.39Zm-.05-12.61V6.33h1.49V4.52Zm3.84,3.37v9.24H129V11.81A2.74,2.74,0,0,1,131.76,9a2.56,2.56,0,0,1,2.59,2.78v5.35h1.39V11.76a3.71,3.71,0,0,0-3.7-4A3.59,3.59,0,0,0,129,9.33V7.89Zm17.68,0V9.37A3.76,3.76,0,0,0,142,7.74a4.42,4.42,0,0,0-4.48,4.69,4.41,4.41,0,0,0,4.48,4.7,3.78,3.78,0,0,0,3.3-1.65v1.28c0,1.91-.92,2.92-3,2.92a2.62,2.62,0,0,1-2.7-1.44H138c.52,1.62,2,2.7,4.31,2.7,2.77,0,4.36-1.44,4.36-4.08v-9Zm-3.12,8a3.2,3.2,0,0,1-3.27-3.45,3.24,3.24,0,1,1,6.47,0A3.18,3.18,0,0,1,142.14,15.88Zm8.3-11.69h-1.39V17.13h1.39ZM157,16a3.21,3.21,0,0,1-3.27-3h7.74v-.56a4.58,4.58,0,1,0-9.16,0A4.57,4.57,0,0,0,157,17.28a4.23,4.23,0,0,0,4.22-2.81h-1.52A2.89,2.89,0,0,1,157,16Zm-.11-7A3.09,3.09,0,0,1,160,11.77h-6.28A3.09,3.09,0,0,1,156.86,9Zm9.51-1.26c-2.39,0-3.63,1-3.63,2.64,0,3.39,6.16,1.95,6.16,4.26,0,1.25-1.6,1.46-2.37,1.46-1.8,0-2.5-.92-2.59-1.87H162.5c.09,1.62,1.44,3.05,4,3.05,2.28,0,3.76-1,3.76-2.77,0-3.48-6.15-2-6.15-4.26,0-.9.76-1.33,2.2-1.33s2.14.64,2.26,1.45H170C169.82,9,168.8,7.74,166.37,7.74Zm5.47,7.51v1.88h1.8V15.25ZM180,16a3.33,3.33,0,0,1-3.34-3.52A3.32,3.32,0,0,1,180,9a2.79,2.79,0,0,1,2.68,1.79h1.49a4.35,4.35,0,0,0-4.36-3,4.49,4.49,0,0,0-4.54,4.77,4.49,4.49,0,0,0,4.54,4.77,4.34,4.34,0,0,0,4.36-3.05h-1.49A2.78,2.78,0,0,1,180,16Zm9.91-8.29a4.5,4.5,0,0,0-4.59,4.77,4.6,4.6,0,1,0,9.19,0A4.5,4.5,0,0,0,189.89,7.74Zm0,8.29a3.22,3.22,0,0,1-3.2-3.52,3.22,3.22,0,1,1,6.41,0A3.22,3.22,0,0,1,189.89,16Zm14-4.43a2.43,2.43,0,0,1,2.5-2.6,2.35,2.35,0,0,1,2.28,2.59v5.54h1.39V11.55a3.56,3.56,0,0,0-3.42-3.81,3.66,3.66,0,0,0-3.17,1.86,3.32,3.32,0,0,0-3-1.86,3.12,3.12,0,0,0-2.81,1.55V7.89h-1.39v9.24h1.39V11.6A2.43,2.43,0,0,1,200.19,9a2.36,2.36,0,0,1,2.3,2.59v5.54h1.39Z"/></g><g id="d8c04df1-5502-47cb-aa0e-5770527b9bb2"><path class="cls-1" d="M36.82,16.5H35.46a.67.67,0,1,0,0,1.33h1.36a.67.67,0,1,0,0-1.33Zm5.9.06H41.35a.67.67,0,0,0,0,1.33h1.37a.67.67,0,0,0,0-1.33Zm-3.57,1.49a.67.67,0,0,0-.66.67v1.36a.67.67,0,1,0,1.33,0V18.72A.67.67,0,0,0,39.15,18.05Z"/><path class="cls-2" d="M39.14,16.13a.65.65,0,0,0,.66-.66V7.77a.67.67,0,0,0-.43-.63L20.38,0a.76.76,0,0,0-.47,0l-19,7.1a.67.67,0,0,0-.87.37.65.65,0,0,0,.36.86.64.64,0,0,0,.49,0L7.33,11V21.26c0,2.66,6.65,3.87,12.82,3.87S33,23.92,33,21.26V11.15L36.39,9.8a.66.66,0,0,0,.38-.86h0a.67.67,0,0,0-.86-.38h0L20.15,14.75,3,7.79,20.14,1.37,38.48,8.23v7.24a.65.65,0,0,0,.66.66Zm-19,0a.69.69,0,0,0,.25,0l11.25-4.42v9.59c0,.86-4.05,2.54-11.49,2.54S8.66,22.12,8.66,21.26V11.53l11.23,4.56A.73.73,0,0,0,20.14,16.13Z"/></g></svg>